<svg enable-background="new 0 0 515.91 728.5" height="512" viewBox="0 0 512.00003 512" width="512" xmlns="http://www.w3.org/2000/svg"><path d="m0-.000015v512.000025h512.00003v-512.000025z" fill="#94bd31"/><g fill="#fff" transform="matrix(1.6430061 0 0 1.6430061 -1664.569 -2212.4612)"><path d="m1233.936 1561.3155v-82.33-9.873-11.163h.026-129.899-.127v11.457 9.578 82.33c0 8.229 5.791 14.634 14.02 14.634h10.781c-.372 1 .199 2.845.199 4.201v.795 4.709 24.346c0 7.799 5.701 14.134 13.5 14.134s13.5-6.334 13.5-14.134v-24.346-4.709-.795c0-1.348.302-3.201-.055-4.201h26.255c-.372 1-.201 2.845-.201 4.201v.795 4.709 24.346c0 7.799 5.701 14.134 13.5 14.134 7.814 0 13.5-6.334 13.5-14.134v-24.346-4.709-.795c0-1.348.702-3.201.345-4.201h10.766c8.245.001 13.89-6.404 13.89-14.633z"/><path d="m1244.936 1471.7835v60.463c0 7.814 5.697 14.134 13.511 14.134 7.807 0 13.489-6.32 13.489-14.134v-60.463c0-7.814-5.69-14.134-13.489-14.134-7.814 0-13.511 6.32-13.511 14.134z"/><path d="m1079.429 1546.3795c7.807 0 13.507-6.32 13.507-14.134v-60.463c0-7.814-5.701-14.134-13.507-14.134s-13.493 6.32-13.493 14.134v60.463c0 7.815 5.686 14.134 13.493 14.134z"/><path d="m1206.715 1393.1555 5.868-8.813c.729-1.086.423-2.544-.641-3.266-1.093-.729-2.558-.43-3.273.656l-6.305 9.454-2.646 3.973-2.69 4.031c-8.4991-3.302-18.011-5.153-28.034-5.153-10.008 0-19.506 1.851-28.019 5.153l-2.69-4.031-2.6311-3.973-6.3049-9.454c-.7221-1.086-2.187-1.37-3.273-.656s-1.37 2.179-.656 3.266l5.868 8.813 2.631 3.929 2.646 3.853c-20.001 9.308-33.523 27.012-33.523 47.012h131.925c0-20-13.529-37.711-33.53-47.012l2.66-3.92zm-65.973 36.22c-3.905 0-7.07-3.165-7.07-7.07s3.166-7.07 7.07-7.07c3.905 0 7.07 3.166 7.07 7.07s-3.165 7.07-7.07 7.07zm63.612-7.071c0 3.905-3.166 7.07-7.07 7.07s-7.07-3.165-7.07-7.07 3.166-7.07 7.07-7.07 7.07 3.165 7.07 7.07z"/></g></svg>