<svg enable-background="new 0 0 515.91 728.5" height="512" viewBox="0 0 512.00003 512" width="512" xmlns="http://www.w3.org/2000/svg"><g fill="#932279" transform="translate(.000015)"><path d="m0 0v512h512v-512z"/><g transform="matrix(15.99685 0 0 15.99685 -5338.7915 -6028.4756)"><g transform="translate(.446429 -.044643)"><path d="m355.84375 380.40625c-.0699.0404-.0811.0614-.0625.0312-.67912 1.14393-.69662 2.65289-1 4a.4982215.4982215 0 0 1 0 .0312c-.005.0197.005.0429 0 .0625-.14726 1.44619-.62399 2.92107-.28125 4.3125a.4982215.4982215 0 0 1 .0312.0937c.003.0101-.003.0212 0 .0312.005.008-.005.0237 0 .0312.006.009.0253-.008.0312 0 .0731.10058.16238.1759.21875.1875.0403.008.11021.004.25-.0937.15127-.1053.23683-.31627.28125-.59375a.4982215.4982215 0 0 1 .0625-.0937.4982215.4982215 0 0 1 0-.0312.4982215.4982215 0 0 1 .0312-.0937.4982215.4982215 0 0 1 .0312-.0312c.59834-2.38691 1.00327-4.89182.84375-7.34375-.0204-.12189-.0428-.2068-.15625-.34375-.0753-.0907-.13704-.14279-.15625-.15625-.0192-.0135.007-.004-.0625 0a.4982215.4982215 0 0 1 -.0312 0c-.0257.003-.0158-.00061-.0312 0z"/><path d="m361.84375 381.84375c-1.03636.50365-1.56686 1.70537-2.28125 2.6875a.46681363.46681363 0 0 1 -.0312.0937.46681363.46681363 0 0 1 -.0312.0625c-.90569 1.60511-2.06123 3.20738-2.1875 5.0625-.00071.0105.00065.0208 0 .0312.0138.27995.17412.43198.34375.46875.16658.036.47447-.0594.59375-.25a.46681363.46681363 0 0 1 .0312-.0312.46681363.46681363 0 0 1 0-.0312.46681363.46681363 0 0 1 0-.0312c1.646-2.26173 2.88416-4.92489 3.90625-7.53125a.46681363.46681363 0 0 1 0-.0312c.0707-.17113.0941-.21493.0312-.34375-.0185-.0381-.21237-.16871-.3125-.15625-.0163.007-.0465-.008-.0625 0z" transform="translate(-.491071 -.267857)"/></g><path d="m345.66985 382.2774c-.16726.0311-.4161.1809-.59375.25-.62832.23837-.975.77698-1.125 1.40625-.15274.64382-.10183 1.36084 0 2.09375.10181.73145.24752 1.48649.40625 2.0625.13645.49836.23415.7408.28125.90625v.125c0 .0545-.0261.05-.0625.0937-.02.0109.02.0625 0 .0625-.0453.0346-.0999.0625-.15625.0625-.11101.007-.19778-.0334-.3125-.0625-.0782-.0181-.17995-.0807-.15625-.0625-.0363-.0218-.1013-.0243-.125-.0625 0 .0146.0219.0143 0-.0312-.0254-.0473-.0537-.1664-.0937-.25-.0891-.18946-.15908-.40895-.28125-.6875-.24381-.55472-.55754-1.23609-.90625-1.875-.34999-.64145-.76223-1.22354-1.21875-1.625-.22817-.20054-.50982-.40155-.78125-.46875-.26199-.0655-.57287-.01-.84375.125-.69997.38836-1.09619 1.02422-1.25 1.6875-.15456.67346-.0815 1.44899.0312 2.125.11454.67454.29189 1.23077.40625 1.6875.049.19254.1087.37235.125.46875 0 .0955-.0389.3448-.0625.4375-.11818.40928-.40559 1.09375-.40625 1.09375 0 0-5.45294 14.48293 6.25 13.46875.0964-.007.31535-.0625.40625-.0625 2.29827-.46272 4.47308-1.15769 6.40625-1.9375.3798-.182.87805-.36282 1.4375-.625 1.11885-.52418 2.52451-1.19587 3.875-1.9375 1.35103-.74219 2.60454-1.533 3.5625-2.375.9596-.84327 1.65997-1.76731 1.53125-2.6875-.20364-1.48345-1.18879-2.58587-2.5-3.4375-1.31613-.85473-2.95728-1.44464-4.59375-1.875-1.63576-.43018-3.2241-.78002-4.4375-.96875-.60652-.0945-1.1749-.122-1.53125-.1875-.10544-.0181-.16175-.0443-.21875-.0625-.0307-.004-.0334-.0131-.0625-.0312-.0363-.0218-.1031-.0243-.125-.0625-.02-.0363 0-.0832 0-.125 0-.0163-.00017-.0407 0-.0625v-.90625c-.02-.748-.064-1.73553-.21875-2.65625-.15637-.92455-.39754-1.80879-.90625-2.40625-.30235-.35545-.73038-.5887-1.25-.625-.15636-.0182-.3311-.0309-.5 0z"/></g></g><path d="m256 56.027555-46.7921 46.792065h29.51812 3.46948v3.46945 113.15283l13.8045 13.8045 14.2634-14.26339v-113.11612-3.48784h3.4879 28.60021zm21.22075 53.308845v102.68926l67.38874-67.38869-35.30063-35.30057zm41.94582 0 32.84078 32.84073 2.45984 2.45984-2.45984 2.45985-74.7866 74.7866v12.7765h13.05189l74.65806-74.63975 2.45985-2.45984 2.45984 2.45984 32.69392 32.69388v-83.37765zm-209.03164.44057v82.2579l31.86783-31.86784 2.45984-2.45984 2.45985 2.45984 74.51124 74.49289h13.80449v-12.31754l-75.24552-75.24556-2.45984-2.45985 2.45984-2.45984 32.40019-32.40016zm92.11565 0-34.86003 34.86 67.84763 67.84764v-102.70764zm165.13997 57.62274-67.26021 67.26021h102.41397v-32.1065zm-222.92795.14685-34.32767 34.32768v32.78568h101.42267zm-41.28499 41.28503-47.177605 47.17754 47.177605 47.17766v-30.23408-3.48783h3.48784 113.1161l13.2905-13.2905-14.55713-14.55717h-111.84947-3.48784v-3.48778zm306.32399.67918v28.61866 3.48778h-3.46951-112.8591l-14.39192 14.39192 13.45574 13.45575h113.79528 3.46951v3.48783 29.55484l46.49843-46.49842zm-299.36667 66.9114v33.72191l34.47453 34.47454 68.21477-68.19645zm112.54704 0-75.59431 75.57598-2.4782 2.45985-2.45984-2.45985-32.01469-32.01469v81.76228h81.48692l-31.61083-31.61083-2.45984-2.45984 2.45984-2.45984 75.44745-75.44745v-13.3456h-12.7765zm54.53878 0v14.6122l74.18078 74.18085 2.45991 2.45985-2.45991 2.45984-31.61077 31.61083h82.75355v-82.44152l-32.69392 32.69393-2.45984 2.45985-2.45985-2.45985-75.5943-75.57598zm21.97335 0 68.19645 68.19645 35.15376-35.15378v-33.04267zm-43.48781 2.93712-13.2905 13.2905v112.58379 3.46951h-3.48784-30.50941l47.28775 47.26935 47.26942-47.26935h-29.22441-3.4879v-3.46951-111.31713zm-20.24782 20.24785-68.06792 68.06793 34.07067 34.07067h33.99725zm41.76228 1.26661v100.87199h32.71225l34.07067-34.07067z" fill="#fff"/></svg>