<svg enable-background="new 0 0 515.91 728.5" height="512" viewBox="0 0 512.00003 512" width="512" xmlns="http://www.w3.org/2000/svg"><g transform="translate(-866.20581 -605.4602)"><path d="m866.20585 605.46021v511.99999h511.99995v-511.99999z" fill="#f47421"/><path d="m1207.1614 730.42117c17.6779 10.2085 40.277 4.1537 50.4789-13.5199 10.2076-17.6795 4.157-40.277-13.5225-50.4839-17.677-10.2043-40.2736-4.1503-50.4813 13.53-10.2035 17.6728-4.1504 40.2695 13.5249 50.4738zm-75.6494 239.0126c-16.2541 0-31.6575-3.6134-45.4836-10.0458l-25.6841 46.02563c21.454 10.623 45.6061 16.625 71.1677 16.625 14.8648 0 29.2388-2.0597 42.8979-5.8426 2.4171-14.8455 11.2321-28.52813 25.2856-36.64343 14.0292-8.0994 30.2656-8.9023 44.3191-3.5908 27.3318-26.8746 45.1162-63.4392 47.7052-104.1583l-52.6794-.7635c-4.8475 55.1561-51.1198 98.3972-107.5284 98.3972zm0-215.9486c56.4086 0 102.6809 43.2494 107.5284 98.3996l52.6794-.7719c-2.5924-40.7157-20.3776-77.2795-47.7127-104.1532-14.0518 5.3081-30.2858 4.5036-44.3166-3.5975-14.0519-8.1119-22.8652-21.7929-25.2822-36.6401-13.6575-3.7787-28.0315-5.8409-42.8963-5.8409-25.5616 0-49.712 6.0003-71.1643 16.6275l25.6824 46.0197c13.8244-6.4323 29.2278-10.0458 45.4819-10.0458zm-107.9731 107.9747c0-36.5302 18.1544-68.7951 45.9115-88.3329l-27.0222-45.2688c-32.3463 21.6134-56.41024 54.6509-66.4048 93.349 11.67676 9.5164 19.13676 24.0087 19.13676 40.2561 0 16.2448-7.4626 30.7371-19.13836 40.2518 9.99286 38.7006 34.0568 71.7373 66.4047 93.3507l27.0239-45.2705c-27.7571-19.5353-45.9115-51.8002-45.9115-88.3354zm183.6276 131.0362c-17.6804 10.20773-23.7335 32.80353-13.5283 50.47633 10.2076 17.6795 32.8026 23.7368 50.483 13.5291 17.6744-10.2051 23.7301-32.8026 13.5224-50.4805-10.2035-17.67113-32.8027-23.72843-50.4771-13.52493zm-263.91553-167.9943c-20.41788 0-36.9631 16.5427-36.9631 36.9615 0 20.4128 16.54522 36.958 36.9631 36.958 20.41113 0 36.95799-16.5452 36.95799-36.958 0-20.4188-16.54686-36.9615-36.95799-36.9615" fill="#fff"/></g></svg>